/* XPM */
static char *dff1aa76d44e4b5b9979c807f963b85br497pbcvRYQIGtbH[] = {
/* columns rows colors chars-per-pixel */
"32 32 10 1 ",
"  c None",
". c #174159",
"X c #5D5D5D",
"o c #27739B",
"O c #5AAED8",
"+ c #AAAAAA",
"@ c #ADD6EC",
"# c gray87",
"$ c #D5EBF4",
"% c white",
/* pixels */
"                                ",
"                                ",
"                                ",
" .....        ....        ..... ",
" .@@O.XXXXXXXX.@O.XXXXXXXX.@@O. ",
" .@@O.++++++++.@O.++++++++.@@O. ",
" .@$O.########.$O.########.@$O. ",
" .$%@.%%%%%%%%.%@.%%%%%%%%.$%@. ",
" .%$O.########.$O.########.%$O. ",
" .$$O.########.$O.########.$$O. ",
" .$@O.########.@O.########.$@O. ",
" .@@O.########.@O.########.@@O. ",
" .@@O.++++++++.OO.++++++++.@@O. ",
" .@OO.++++++........++++++.@OO. ",
" .@OO.++++++.%%%%%$.++++++.@OO. ",
" .OOO........$@OO@$........OOO. ",
" .OOOOOOOOOO.$@..@$.OOOOOOOOOO. ",
" .OOOOOOOOOO.$@..@$.OOOOOOOOOO. ",
" ............$@..@$............ ",
" .ooo.XXXXXX.$O@@OO.XXXXXX.ooo. ",
" .OOo.XXXXXXX.OOOO.XXXXXXX.OOo. ",
" .OOO.++++++XX....XX++++++.OOO. ",
" .@OO.+++++++XXXXXX+++++++.@OO. ",
" .@@O.++++++++++++++++++++.@@O. ",
" .@@O.++++++++++++++++++++.@@O. ",
" .@@O.++++++++++++++++++++.@@O. ",
" .@@O.++++++++++++++++++++.@@O. ",
" .@@O.++++++++++++++++++++.@@O. ",
" .@@O.XXXXXXXXXXXXXXXXXXXX.@@O. ",
" .....                    ..... ",
"                                ",
"                                "
};
